<mxfile host="65bd71144e">
    <diagram id="X7ddk2W8EK-1jcMmWwcX" name="Pagina-1">
        <mxGraphModel dx="1608" dy="1576" grid="1" gridSize="10" guides="1" tooltips="1" connect="1" arrows="1" fold="1" page="1" pageScale="1" pageWidth="827" pageHeight="1169" math="0" shadow="0">
            <root>
                <mxCell id="0"/>
                <mxCell id="1" parent="0"/>
                <mxCell id="2" value="Content" style="whiteSpace=wrap;html=1;align=center;" parent="1" vertex="1">
                    <mxGeometry x="40" y="40" width="100" height="40" as="geometry"/>
                </mxCell>
                <mxCell id="4" value="Name" style="ellipse;whiteSpace=wrap;html=1;align=center;fontStyle=4" parent="1" vertex="1">
                    <mxGeometry x="40" y="-40" width="100" height="40" as="geometry"/>
                </mxCell>
                <mxCell id="5" value="LinkedImage" style="ellipse;whiteSpace=wrap;html=1;align=center;" parent="1" vertex="1">
                    <mxGeometry x="-80" y="40" width="100" height="40" as="geometry"/>
                </mxCell>
                <mxCell id="8" value="Difficulty" style="whiteSpace=wrap;html=1;align=center;" parent="1" vertex="1">
                    <mxGeometry x="320" y="40" width="100" height="40" as="geometry"/>
                </mxCell>
                <mxCell id="9" value="Difficulty" style="ellipse;whiteSpace=wrap;html=1;align=center;fontStyle=4;" parent="1" vertex="1">
                    <mxGeometry x="320" y="-40" width="100" height="40" as="geometry"/>
                </mxCell>
                <mxCell id="18" value="" style="endArrow=none;html=1;rounded=0;" parent="1" source="8" target="9" edge="1">
                    <mxGeometry relative="1" as="geometry">
                        <mxPoint x="-110" y="40" as="sourcePoint"/>
                        <mxPoint x="50" y="40" as="targetPoint"/>
                    </mxGeometry>
                </mxCell>
                <mxCell id="19" value="" style="endArrow=none;html=1;rounded=0;" parent="1" source="2" target="4" edge="1">
                    <mxGeometry relative="1" as="geometry">
                        <mxPoint x="40" y="40" as="sourcePoint"/>
                        <mxPoint x="200" y="40" as="targetPoint"/>
                    </mxGeometry>
                </mxCell>
                <mxCell id="20" value="" style="endArrow=none;html=1;rounded=0;" parent="1" source="2" target="5" edge="1">
                    <mxGeometry relative="1" as="geometry">
                        <mxPoint x="40" y="40" as="sourcePoint"/>
                        <mxPoint x="200" y="40" as="targetPoint"/>
                    </mxGeometry>
                </mxCell>
                <mxCell id="21" value="User" style="whiteSpace=wrap;html=1;align=center;" parent="1" vertex="1">
                    <mxGeometry x="-240" y="240" width="100" height="40" as="geometry"/>
                </mxCell>
                <mxCell id="22" value="Name" style="ellipse;whiteSpace=wrap;html=1;align=center;" parent="1" vertex="1">
                    <mxGeometry x="-360" y="160" width="100" height="40" as="geometry"/>
                </mxCell>
                <mxCell id="23" value="Surname" style="ellipse;whiteSpace=wrap;html=1;align=center;" parent="1" vertex="1">
                    <mxGeometry x="-240" y="160" width="100" height="40" as="geometry"/>
                </mxCell>
                <mxCell id="24" value="Email" style="ellipse;whiteSpace=wrap;html=1;align=center;fontStyle=4" parent="1" vertex="1">
                    <mxGeometry x="-240" y="320" width="100" height="40" as="geometry"/>
                </mxCell>
                <mxCell id="25" value="" style="endArrow=none;html=1;rounded=0;" edge="1" parent="1" source="24" target="21">
                    <mxGeometry relative="1" as="geometry">
                        <mxPoint x="-90" y="130" as="sourcePoint"/>
                        <mxPoint x="70" y="130" as="targetPoint"/>
                    </mxGeometry>
                </mxCell>
                <mxCell id="26" value="" style="endArrow=none;html=1;rounded=0;" edge="1" parent="1" source="23" target="21">
                    <mxGeometry relative="1" as="geometry">
                        <mxPoint x="-90" y="130" as="sourcePoint"/>
                        <mxPoint x="70" y="130" as="targetPoint"/>
                    </mxGeometry>
                </mxCell>
                <mxCell id="27" value="" style="endArrow=none;html=1;rounded=0;" edge="1" parent="1" source="22" target="21">
                    <mxGeometry relative="1" as="geometry">
                        <mxPoint x="-90" y="130" as="sourcePoint"/>
                        <mxPoint x="70" y="130" as="targetPoint"/>
                    </mxGeometry>
                </mxCell>
                <mxCell id="28" value="IsModerator" style="ellipse;whiteSpace=wrap;html=1;align=center;" vertex="1" parent="1">
                    <mxGeometry x="-360" y="210" width="100" height="40" as="geometry"/>
                </mxCell>
                <mxCell id="29" value="IsAdministrator" style="ellipse;whiteSpace=wrap;html=1;align=center;" vertex="1" parent="1">
                    <mxGeometry x="-360" y="270" width="100" height="40" as="geometry"/>
                </mxCell>
                <mxCell id="31" value="" style="endArrow=none;html=1;rounded=0;" edge="1" parent="1" source="28" target="21">
                    <mxGeometry relative="1" as="geometry">
                        <mxPoint x="-170" y="230" as="sourcePoint"/>
                        <mxPoint x="-10" y="230" as="targetPoint"/>
                    </mxGeometry>
                </mxCell>
                <mxCell id="32" value="" style="endArrow=none;html=1;rounded=0;" edge="1" parent="1" source="29" target="21">
                    <mxGeometry relative="1" as="geometry">
                        <mxPoint x="-170" y="230" as="sourcePoint"/>
                        <mxPoint x="-10" y="230" as="targetPoint"/>
                    </mxGeometry>
                </mxCell>
                <mxCell id="33" value="Patient" style="whiteSpace=wrap;html=1;align=center;" vertex="1" parent="1">
                    <mxGeometry x="40" y="240" width="100" height="40" as="geometry"/>
                </mxCell>
                <mxCell id="35" value="" style="endArrow=none;html=1;rounded=0;shape=link;" edge="1" parent="1" source="34" target="33">
                    <mxGeometry relative="1" as="geometry">
                        <mxPoint x="-100" y="260" as="sourcePoint"/>
                        <mxPoint x="60" y="260" as="targetPoint"/>
                    </mxGeometry>
                </mxCell>
                <mxCell id="37" value="N" style="resizable=0;html=1;whiteSpace=wrap;align=right;verticalAlign=bottom;" connectable="0" vertex="1" parent="35">
                    <mxGeometry x="1" relative="1" as="geometry"/>
                </mxCell>
                <mxCell id="38" value="" style="endArrow=none;html=1;rounded=0;" edge="1" parent="1" source="21" target="34">
                    <mxGeometry relative="1" as="geometry">
                        <mxPoint x="-140" y="260" as="sourcePoint"/>
                        <mxPoint x="40" y="260" as="targetPoint"/>
                    </mxGeometry>
                </mxCell>
                <mxCell id="39" value="1" style="resizable=0;html=1;whiteSpace=wrap;align=left;verticalAlign=bottom;" connectable="0" vertex="1" parent="38">
                    <mxGeometry x="-1" relative="1" as="geometry"/>
                </mxCell>
                <mxCell id="34" value="Have" style="shape=rhombus;perimeter=rhombusPerimeter;whiteSpace=wrap;html=1;align=center;" vertex="1" parent="1">
                    <mxGeometry x="-110" y="230" width="120" height="60" as="geometry"/>
                </mxCell>
                <mxCell id="41" value="Name" style="ellipse;whiteSpace=wrap;html=1;align=center;" vertex="1" parent="1">
                    <mxGeometry x="-70" y="160" width="100" height="40" as="geometry"/>
                </mxCell>
                <mxCell id="42" value="Surname" style="ellipse;whiteSpace=wrap;html=1;align=center;" vertex="1" parent="1">
                    <mxGeometry x="40" y="160" width="100" height="40" as="geometry"/>
                </mxCell>
                <mxCell id="43" value="Age" style="ellipse;whiteSpace=wrap;html=1;align=center;" vertex="1" parent="1">
                    <mxGeometry x="150" y="160" width="100" height="40" as="geometry"/>
                </mxCell>
                <mxCell id="44" value="ID" style="ellipse;whiteSpace=wrap;html=1;align=center;fontStyle=4" vertex="1" parent="1">
                    <mxGeometry x="-70" y="320" width="100" height="40" as="geometry"/>
                </mxCell>
                <mxCell id="45" value="" style="endArrow=none;html=1;rounded=0;" edge="1" parent="1" source="33" target="41">
                    <mxGeometry relative="1" as="geometry">
                        <mxPoint x="-60" y="280" as="sourcePoint"/>
                        <mxPoint x="100" y="280" as="targetPoint"/>
                    </mxGeometry>
                </mxCell>
                <mxCell id="46" value="" style="endArrow=none;html=1;rounded=0;" edge="1" parent="1" source="33" target="42">
                    <mxGeometry relative="1" as="geometry">
                        <mxPoint x="-60" y="280" as="sourcePoint"/>
                        <mxPoint x="100" y="280" as="targetPoint"/>
                    </mxGeometry>
                </mxCell>
                <mxCell id="47" value="" style="endArrow=none;html=1;rounded=0;" edge="1" parent="1" source="33" target="43">
                    <mxGeometry relative="1" as="geometry">
                        <mxPoint x="-60" y="280" as="sourcePoint"/>
                        <mxPoint x="100" y="280" as="targetPoint"/>
                    </mxGeometry>
                </mxCell>
                <mxCell id="48" value="" style="endArrow=none;html=1;rounded=0;" edge="1" parent="1" source="33" target="44">
                    <mxGeometry relative="1" as="geometry">
                        <mxPoint x="-60" y="280" as="sourcePoint"/>
                        <mxPoint x="100" y="280" as="targetPoint"/>
                    </mxGeometry>
                </mxCell>
                <mxCell id="49" value="Notes" style="ellipse;whiteSpace=wrap;html=1;align=center;" vertex="1" parent="1">
                    <mxGeometry x="40" y="320" width="100" height="40" as="geometry"/>
                </mxCell>
                <mxCell id="50" value="" style="endArrow=none;html=1;rounded=0;" edge="1" parent="1" source="33" target="49">
                    <mxGeometry relative="1" as="geometry">
                        <mxPoint x="50" y="350" as="sourcePoint"/>
                        <mxPoint x="210" y="350" as="targetPoint"/>
                    </mxGeometry>
                </mxCell>
                <mxCell id="51" value="Activity" style="whiteSpace=wrap;html=1;align=center;" vertex="1" parent="1">
                    <mxGeometry x="600" y="240" width="100" height="40" as="geometry"/>
                </mxCell>
                <mxCell id="59" value="Name" style="ellipse;whiteSpace=wrap;html=1;align=center;fontStyle=4" vertex="1" parent="1">
                    <mxGeometry x="720" y="240" width="100" height="40" as="geometry"/>
                </mxCell>
                <mxCell id="60" value="" style="endArrow=none;html=1;rounded=0;" edge="1" parent="1" source="51" target="59">
                    <mxGeometry relative="1" as="geometry">
                        <mxPoint x="610" y="40" as="sourcePoint"/>
                        <mxPoint x="770" y="40" as="targetPoint"/>
                    </mxGeometry>
                </mxCell>
                <mxCell id="62" value="" style="endArrow=none;html=1;rounded=0;" edge="1" parent="1" source="94" target="51">
                    <mxGeometry relative="1" as="geometry">
                        <mxPoint x="600" y="20" as="sourcePoint"/>
                        <mxPoint x="540" y="70" as="targetPoint"/>
                    </mxGeometry>
                </mxCell>
                <mxCell id="68" value="" style="endArrow=none;html=1;rounded=0;" edge="1" parent="1" source="93" target="95">
                    <mxGeometry relative="1" as="geometry">
                        <mxPoint x="510" y="20" as="sourcePoint"/>
                        <mxPoint x="624.2752122286538" y="-42.8501414857692" as="targetPoint"/>
                    </mxGeometry>
                </mxCell>
                <mxCell id="69" value="SessionScore" style="whiteSpace=wrap;html=1;align=center;" vertex="1" parent="1">
                    <mxGeometry x="320" y="360" width="100" height="40" as="geometry"/>
                </mxCell>
                <mxCell id="71" value="" style="endArrow=none;html=1;rounded=0;shape=link;" edge="1" parent="1" source="70" target="69">
                    <mxGeometry relative="1" as="geometry">
                        <mxPoint x="-50" y="270" as="sourcePoint"/>
                        <mxPoint x="110" y="270" as="targetPoint"/>
                    </mxGeometry>
                </mxCell>
                <mxCell id="73" value="N" style="resizable=0;html=1;whiteSpace=wrap;align=right;verticalAlign=bottom;" connectable="0" vertex="1" parent="71">
                    <mxGeometry x="1" relative="1" as="geometry"/>
                </mxCell>
                <mxCell id="74" value="" style="endArrow=none;html=1;rounded=0;" edge="1" parent="1" source="33" target="70">
                    <mxGeometry relative="1" as="geometry">
                        <mxPoint x="137" y="280" as="sourcePoint"/>
                        <mxPoint x="323" y="360" as="targetPoint"/>
                    </mxGeometry>
                </mxCell>
                <mxCell id="75" value="1" style="resizable=0;html=1;whiteSpace=wrap;align=left;verticalAlign=bottom;" connectable="0" vertex="1" parent="74">
                    <mxGeometry x="-1" relative="1" as="geometry">
                        <mxPoint x="-10" y="20" as="offset"/>
                    </mxGeometry>
                </mxCell>
                <mxCell id="70" value="Have" style="shape=rhombus;perimeter=rhombusPerimeter;whiteSpace=wrap;html=1;align=center;" vertex="1" parent="1">
                    <mxGeometry x="150" y="350" width="120" height="60" as="geometry"/>
                </mxCell>
                <mxCell id="77" value="ID" style="ellipse;whiteSpace=wrap;html=1;align=center;fontStyle=4;" vertex="1" parent="1">
                    <mxGeometry x="440" y="360" width="100" height="40" as="geometry"/>
                </mxCell>
                <mxCell id="79" value="Score" style="ellipse;whiteSpace=wrap;html=1;align=center;" vertex="1" parent="1">
                    <mxGeometry x="440" y="440" width="100" height="40" as="geometry"/>
                </mxCell>
                <mxCell id="81" value="Date" style="ellipse;whiteSpace=wrap;html=1;align=center;" vertex="1" parent="1">
                    <mxGeometry x="320" y="440" width="100" height="40" as="geometry"/>
                </mxCell>
                <mxCell id="83" value="" style="endArrow=none;html=1;rounded=0;" edge="1" parent="1" source="69" target="77">
                    <mxGeometry relative="1" as="geometry">
                        <mxPoint x="350" y="300" as="sourcePoint"/>
                        <mxPoint x="510" y="300" as="targetPoint"/>
                    </mxGeometry>
                </mxCell>
                <mxCell id="85" value="" style="endArrow=none;html=1;rounded=0;" edge="1" parent="1" source="69" target="79">
                    <mxGeometry relative="1" as="geometry">
                        <mxPoint x="350" y="300" as="sourcePoint"/>
                        <mxPoint x="510" y="300" as="targetPoint"/>
                    </mxGeometry>
                </mxCell>
                <mxCell id="89" value="" style="endArrow=none;html=1;rounded=0;" edge="1" parent="1" source="81" target="69">
                    <mxGeometry relative="1" as="geometry">
                        <mxPoint x="350" y="300" as="sourcePoint"/>
                        <mxPoint x="510" y="300" as="targetPoint"/>
                    </mxGeometry>
                </mxCell>
                <mxCell id="93" value="ActivityWith&lt;div&gt;Difficulty&lt;/div&gt;" style="shape=ext;margin=3;double=1;whiteSpace=wrap;html=1;align=center;" vertex="1" parent="1">
                    <mxGeometry x="320" y="240" width="100" height="40" as="geometry"/>
                </mxCell>
                <mxCell id="94" value="Description" style="ellipse;whiteSpace=wrap;html=1;align=center;" vertex="1" parent="1">
                    <mxGeometry x="600" y="160" width="100" height="40" as="geometry"/>
                </mxCell>
                <mxCell id="95" value="MaxScore" style="ellipse;whiteSpace=wrap;html=1;align=center;" vertex="1" parent="1">
                    <mxGeometry x="320" y="300" width="100" height="40" as="geometry"/>
                </mxCell>
                <mxCell id="100" value="" style="endArrow=none;html=1;rounded=0;shape=link;" edge="1" parent="1" source="92" target="51">
                    <mxGeometry relative="1" as="geometry">
                        <mxPoint x="320" y="180" as="sourcePoint"/>
                        <mxPoint x="480" y="180" as="targetPoint"/>
                    </mxGeometry>
                </mxCell>
                <mxCell id="102" value="1" style="resizable=0;html=1;whiteSpace=wrap;align=right;verticalAlign=bottom;" connectable="0" vertex="1" parent="100">
                    <mxGeometry x="1" relative="1" as="geometry"/>
                </mxCell>
                <mxCell id="103" value="" style="endArrow=none;html=1;rounded=0;shape=link;" edge="1" parent="1" source="93" target="92">
                    <mxGeometry relative="1" as="geometry">
                        <mxPoint x="410" y="240" as="sourcePoint"/>
                        <mxPoint x="570" y="160" as="targetPoint"/>
                    </mxGeometry>
                </mxCell>
                <mxCell id="104" value="N" style="resizable=0;html=1;whiteSpace=wrap;align=left;verticalAlign=bottom;" connectable="0" vertex="1" parent="103">
                    <mxGeometry x="-1" relative="1" as="geometry">
                        <mxPoint x="15" as="offset"/>
                    </mxGeometry>
                </mxCell>
                <mxCell id="92" value="Be" style="shape=rhombus;double=1;perimeter=rhombusPerimeter;whiteSpace=wrap;html=1;align=center;" vertex="1" parent="1">
                    <mxGeometry x="450" y="230" width="120" height="60" as="geometry"/>
                </mxCell>
                <mxCell id="108" value="" style="endArrow=none;html=1;rounded=0;" edge="1" parent="1" source="97" target="93">
                    <mxGeometry relative="1" as="geometry">
                        <mxPoint x="300" y="250" as="sourcePoint"/>
                        <mxPoint x="460" y="250" as="targetPoint"/>
                    </mxGeometry>
                </mxCell>
                <mxCell id="110" value="N" style="resizable=0;html=1;whiteSpace=wrap;align=right;verticalAlign=bottom;" connectable="0" vertex="1" parent="108">
                    <mxGeometry x="1" relative="1" as="geometry"/>
                </mxCell>
                <mxCell id="111" value="" style="endArrow=none;html=1;rounded=0;" edge="1" parent="1" source="33" target="97">
                    <mxGeometry relative="1" as="geometry">
                        <mxPoint x="140" y="260" as="sourcePoint"/>
                        <mxPoint x="320" y="260" as="targetPoint"/>
                    </mxGeometry>
                </mxCell>
                <mxCell id="112" value="N" style="resizable=0;html=1;whiteSpace=wrap;align=left;verticalAlign=bottom;" connectable="0" vertex="1" parent="111">
                    <mxGeometry x="-1" relative="1" as="geometry"/>
                </mxCell>
                <mxCell id="97" value="Play" style="shape=rhombus;perimeter=rhombusPerimeter;whiteSpace=wrap;html=1;align=center;" vertex="1" parent="1">
                    <mxGeometry x="170" y="230" width="120" height="60" as="geometry"/>
                </mxCell>
                <mxCell id="114" value="" style="endArrow=none;html=1;rounded=0;shape=link;" edge="1" parent="1" source="107" target="93">
                    <mxGeometry relative="1" as="geometry">
                        <mxPoint x="300" y="130" as="sourcePoint"/>
                        <mxPoint x="460" y="130" as="targetPoint"/>
                    </mxGeometry>
                </mxCell>
                <mxCell id="116" value="N" style="resizable=0;html=1;whiteSpace=wrap;align=right;verticalAlign=bottom;" connectable="0" vertex="1" parent="114">
                    <mxGeometry x="1" relative="1" as="geometry">
                        <mxPoint x="-4" as="offset"/>
                    </mxGeometry>
                </mxCell>
                <mxCell id="117" value="" style="endArrow=none;html=1;rounded=0;" edge="1" parent="1" source="8" target="107">
                    <mxGeometry relative="1" as="geometry">
                        <mxPoint x="370" y="80" as="sourcePoint"/>
                        <mxPoint x="370" y="240" as="targetPoint"/>
                    </mxGeometry>
                </mxCell>
                <mxCell id="118" value="1" style="resizable=0;html=1;whiteSpace=wrap;align=left;verticalAlign=bottom;" connectable="0" vertex="1" parent="117">
                    <mxGeometry x="-1" relative="1" as="geometry">
                        <mxPoint y="20" as="offset"/>
                    </mxGeometry>
                </mxCell>
                <mxCell id="107" value="Have" style="shape=rhombus;perimeter=rhombusPerimeter;whiteSpace=wrap;html=1;align=center;" vertex="1" parent="1">
                    <mxGeometry x="310" y="130" width="120" height="60" as="geometry"/>
                </mxCell>
                <mxCell id="121" value="" style="endArrow=none;html=1;rounded=0;" edge="1" parent="1" source="93" target="128">
                    <mxGeometry relative="1" as="geometry">
                        <mxPoint x="360" y="190" as="sourcePoint"/>
                        <mxPoint x="458.7652476222902" y="304.3826238111451" as="targetPoint"/>
                    </mxGeometry>
                </mxCell>
                <mxCell id="122" value="Password" style="ellipse;whiteSpace=wrap;html=1;align=center;" vertex="1" parent="1">
                    <mxGeometry x="-360" y="320" width="100" height="40" as="geometry"/>
                </mxCell>
                <mxCell id="124" value="" style="endArrow=none;html=1;rounded=0;" edge="1" parent="1" source="21" target="122">
                    <mxGeometry relative="1" as="geometry">
                        <mxPoint x="-170" y="250" as="sourcePoint"/>
                        <mxPoint x="-10" y="250" as="targetPoint"/>
                    </mxGeometry>
                </mxCell>
                <mxCell id="125" value="Color" style="ellipse;whiteSpace=wrap;html=1;align=center;" vertex="1" parent="1">
                    <mxGeometry x="-80" y="-40" width="100" height="40" as="geometry"/>
                </mxCell>
                <mxCell id="126" value="" style="endArrow=none;html=1;rounded=0;" edge="1" parent="1" source="125" target="2">
                    <mxGeometry relative="1" as="geometry">
                        <mxPoint x="130" y="120" as="sourcePoint"/>
                        <mxPoint x="290" y="120" as="targetPoint"/>
                    </mxGeometry>
                </mxCell>
                <mxCell id="128" value="&lt;span style=&quot;border-bottom: 1px dotted&quot;&gt;ID&lt;/span&gt;" style="ellipse;whiteSpace=wrap;html=1;align=center;" vertex="1" parent="1">
                    <mxGeometry x="440" y="300" width="100" height="40" as="geometry"/>
                </mxCell>
                <mxCell id="130" value="" style="endArrow=none;html=1;rounded=0;" edge="1" parent="1" source="129" target="2">
                    <mxGeometry relative="1" as="geometry">
                        <mxPoint x="80" y="160" as="sourcePoint"/>
                        <mxPoint x="240" y="160" as="targetPoint"/>
                    </mxGeometry>
                </mxCell>
                <mxCell id="132" value="N" style="resizable=0;html=1;whiteSpace=wrap;align=right;verticalAlign=bottom;" connectable="0" vertex="1" parent="130">
                    <mxGeometry x="1" relative="1" as="geometry">
                        <mxPoint x="13" as="offset"/>
                    </mxGeometry>
                </mxCell>
                <mxCell id="133" value="" style="endArrow=none;html=1;rounded=0;" edge="1" parent="1" source="8" target="129">
                    <mxGeometry relative="1" as="geometry">
                        <mxPoint x="320" y="60" as="sourcePoint"/>
                        <mxPoint x="140" y="60" as="targetPoint"/>
                    </mxGeometry>
                </mxCell>
                <mxCell id="134" value="1" style="resizable=0;html=1;whiteSpace=wrap;align=left;verticalAlign=bottom;" connectable="0" vertex="1" parent="133">
                    <mxGeometry x="-1" relative="1" as="geometry">
                        <mxPoint x="-15" as="offset"/>
                    </mxGeometry>
                </mxCell>
                <mxCell id="129" value="Have" style="shape=rhombus;perimeter=rhombusPerimeter;whiteSpace=wrap;html=1;align=center;" vertex="1" parent="1">
                    <mxGeometry x="170" y="30" width="120" height="60" as="geometry"/>
                </mxCell>
            </root>
        </mxGraphModel>
    </diagram>
</mxfile>